<svg width="143" height="124" viewBox="0 0 143 124" fill="none" xmlns="http://www.w3.org/2000/svg">
<path d="M0.870117 61.79H71.0601L106.15 1H35.9601L0.870117 61.79Z" stroke="black" stroke-miterlimit="10"/>
<path d="M0.870117 61.79H71.0601L106.15 122.58H35.9601L0.870117 61.79Z" stroke="black" stroke-miterlimit="10"/>
<path d="M91.8303 25.8H50.2803L29.5103 61.79L50.2803 97.77H91.8303L112.61 61.79L91.8303 25.8Z" fill="#FF1F71"/>
<path d="M106.15 1H35.9601L0.870117 61.79L35.9601 122.58H106.15L141.25 61.79L106.15 1Z" stroke="black" stroke-miterlimit="10"/>
<path d="M35.9601 1L71.0601 61.79L35.9601 122.58L0.870117 61.79L35.9601 1Z" stroke="black" stroke-miterlimit="10"/>
<path d="M71.06 61.79H141.25L106.15 122.58H35.96L71.06 61.79Z" stroke="black" stroke-miterlimit="10"/>
</svg>
