<svg width="82" height="96" viewBox="0 0 82 96" fill="none" xmlns="http://www.w3.org/2000/svg">
<path d="M36.6667 76V89C36.6667 91.1667 34.9333 93.3334 32.3333 93.3334C29.7333 93.3334 28 91.1667 28 89V76M36.6667 76H28M36.6667 76H45.3333M28 76H54M28 76C23.2333 76 19.3333 72.1 19.3333 67.3334V45.6667C19.3333 40.9 23.2333 37 28 37H54C58.7667 37 62.6667 40.9 62.6667 45.6667V67.3334C62.6667 72.1 58.7667 76 54 76M54 76V89C54 91.1667 52.2667 93.3334 49.6667 93.3334C47.0667 93.3334 45.3333 91.1667 45.3333 89V76M54 76H45.3333M10.6667 45.6667V63C10.6667 65.6 8.93333 67.3334 6.33333 67.3334C3.73333 67.3334 2 65.6 2 63V45.6667C2 43.0667 3.73333 41.3334 6.33333 41.3334C8.93333 41.3334 10.6667 43.0667 10.6667 45.6667ZM80 45.6667V63C80 65.6 78.2667 67.3334 75.6667 67.3334C73.0667 67.3334 71.3333 65.6 71.3333 63V45.6667C71.3333 43.0667 73.0667 41.3334 75.6667 41.3334C78.2667 41.3334 80 43.0667 80 45.6667ZM30.6 28.3334H51.4C55.3 28.3334 58.3333 25.0834 58.3333 20.906C58.3333 10.6924 50.5333 2.33337 41 2.33337C31.4667 2.33337 23.6667 10.6924 23.6667 20.906C23.6667 25.0834 26.7 28.3334 30.6 28.3334Z" stroke="white" stroke-width="3.5" stroke-miterlimit="10" stroke-linecap="round" stroke-linejoin="round"/>
</svg>
