<svg width="460" height="298" viewBox="0 0 460 298" fill="none" xmlns="http://www.w3.org/2000/svg">
<path d="M32.6353 280.622C31.3235 277.677 30.0546 274.678 28.8597 271.707L32.5573 271.193C33.7444 274.146 35.0075 277.127 36.3115 280.054L32.6353 280.622ZM25.4448 262.742C24.3669 259.743 23.3416 256.712 22.4001 253.731L26.1367 253.326C27.0743 256.287 28.0918 259.301 29.1619 262.282L25.4448 262.742ZM19.7376 244.677C18.913 241.644 18.1509 238.585 17.4726 235.586L21.2423 235.299C21.9148 238.277 22.673 241.315 23.4917 244.329L19.7376 244.677ZM15.6267 226.462C15.0809 223.399 14.6092 220.321 14.2233 217.311L18.0164 217.154C18.3985 220.143 18.8682 223.2 19.4101 226.239L15.6267 226.462ZM13.2877 208.138C13.0557 205.059 12.9115 201.971 12.853 198.955L16.6559 198.947C16.7124 201.937 16.8567 205.002 17.0867 208.053L13.2877 208.138ZM16.7572 189.838L12.9544 189.766C13.0811 186.681 13.3072 183.595 13.6249 180.589L17.4219 180.749C17.1061 183.726 16.882 186.783 16.7572 189.838ZM18.6908 171.686L14.9075 171.431C15.4454 168.363 16.0965 165.296 16.843 162.317L20.6049 162.669C19.8662 165.617 19.223 168.648 18.6908 171.686ZM241.264 168.042C235.982 167.507 232.17 166.043 226.891 163.525L229.308 161.781C233.932 163.983 237.274 165.306 241.685 165.785L241.264 168.042ZM254.499 162.726L251.12 161.669C252.876 159.644 254.433 156.829 255.753 153.301L259.466 153.811C258.055 157.583 256.431 160.499 254.499 162.726ZM215.773 156.929C212.758 154.892 209.534 152.549 205.922 149.768L208.92 148.384C212.481 151.126 215.652 153.432 218.613 155.432L215.773 156.929ZM23.2071 153.723L19.4764 153.263C20.4821 150.238 21.6185 147.222 22.8523 144.298L26.5402 144.869C25.322 147.756 24.2012 150.735 23.2071 153.723ZM262.088 144.685L258.318 144.368C258.92 141.66 259.466 138.694 259.981 135.299L263.768 135.522C263.247 138.949 262.698 141.945 262.088 144.685ZM196.655 142.382C193.582 139.865 190.393 137.207 187.644 134.911L190.732 133.598C193.474 135.888 196.655 138.542 199.721 141.049L196.655 142.382ZM30.6471 136.14L27.0139 135.451C28.5459 132.51 30.2242 129.586 32.0018 126.758L35.563 127.572C33.8126 130.357 32.1578 133.242 30.6471 136.14ZM178.682 127.441C175.222 124.576 172.337 122.223 169.605 120.037L172.647 118.687C175.392 120.883 178.288 123.245 181.762 126.122L178.682 127.441ZM264.976 126.355L261.181 126.182C261.487 123.523 261.803 120.532 262.142 117.041L265.939 117.189C265.598 120.687 265.282 123.685 264.976 126.355ZM41.3248 119.201L37.8513 118.26C39.9584 115.45 42.2039 112.69 44.5858 109.995L47.952 111.069C45.6071 113.721 43.3987 116.436 41.3248 119.201ZM160.264 112.772C156.83 110.189 153.633 107.889 150.491 105.74L153.346 104.253C156.529 106.429 159.763 108.756 163.237 111.369L160.264 112.772ZM266.793 108.028L262.994 107.887C263.271 104.854 263.548 101.818 263.84 98.7297L267.637 98.8746C267.345 101.961 267.07 104.996 266.793 108.028ZM55.5499 103.28L52.3533 102.035C55.3609 99.2601 58.4601 96.755 61.5651 94.5924L64.4616 96.0798C61.4638 98.1641 58.4679 100.587 55.5499 103.28ZM431.875 101.28C430.152 98.215 428.462 95.1462 427.036 92.5511L430.649 91.8582C432.074 94.4514 433.76 97.5124 435.481 100.573L431.875 101.28ZM140.078 99.0859C136.207 96.798 132.397 94.7744 128.757 93.0697L131.089 91.2848C134.845 93.0423 138.765 95.1267 142.743 97.4752L140.078 99.0859ZM75.1704 89.9696L72.8763 88.1475C77.4334 86.1101 82.17 84.6501 86.9591 83.8085L88.0565 85.9888C83.702 86.754 79.367 88.0927 75.1704 89.9696ZM268.553 89.7308L264.758 89.5684C265.111 86.2687 265.458 83.2703 265.82 80.4051L269.613 80.593C269.253 83.4504 268.906 86.4389 268.553 89.7308ZM116.214 88.1925C111.478 86.7482 106.815 85.8146 102.358 85.4193L102.89 83.1725C107.759 83.605 112.817 84.6149 117.924 86.1708L116.214 88.1925ZM422.244 83.8222C420.375 80.4286 418.835 77.6612 417.397 75.113L420.999 74.4006C422.441 76.9547 423.983 79.726 425.856 83.1255L422.244 83.8222ZM270.894 71.4805L267.107 71.2535C267.604 68.0693 268.14 64.9926 268.703 62.1137L272.481 62.3936C271.921 65.2569 271.387 68.3139 270.894 71.4805ZM412.395 66.4351C410.579 63.3584 408.865 60.5441 407.16 57.8334L410.719 57.0467C412.434 59.771 414.157 62.5991 415.982 65.6933L412.395 66.4351ZM274.481 53.3457L270.719 52.9954C271.51 49.819 272.377 46.7658 273.295 43.9202L277.03 44.3664C276.122 47.1807 275.264 50.2026 274.481 53.3457ZM401.567 49.3121C399.544 46.3607 397.503 43.5366 395.502 40.9179L398.959 39.9863C400.983 42.6324 403.043 45.4839 405.086 48.4646L401.567 49.3121ZM280.32 35.4966L276.634 34.9193C277.983 31.7546 279.467 28.7778 281.043 26.0672L284.638 26.8265C283.096 29.4785 281.644 32.3946 280.32 35.4966ZM388.802 32.7156C386.321 29.8836 383.783 27.2238 381.261 24.8087L384.483 23.6168C387.056 26.0809 389.64 28.7895 392.168 31.6744L388.802 32.7156ZM290.407 18.542L287.004 17.5125C289.522 14.5064 292.31 11.8525 295.292 9.62527L298.27 11.052C295.452 13.1579 292.807 15.6767 290.407 18.542ZM372.595 17.3775C369.289 14.8645 365.874 12.6373 362.443 10.7526L365.007 9.0851C368.587 11.052 372.144 13.3712 375.577 15.9801L372.595 17.3775ZM308.921 5.23737L306.884 3.30959C311.402 1.61863 316.374 0.532417 321.663 0.0822754L322.226 2.33102C317.464 2.73615 312.989 3.71472 308.921 5.23737ZM350.477 5.52507C346.057 4.067 341.447 3.05908 336.778 2.53065L337.461 0.29756C342.529 0.872958 347.518 1.96308 352.296 3.53858L350.477 5.52507Z" fill="#C5D7F9"/>
<path d="M194.765 222.546V289.249C194.765 291.516 194.326 293.664 193.537 295.598H133.931C133.139 293.662 132.701 291.514 132.701 289.249V222.546C132.701 214.089 138.835 207.226 146.4 207.226H181.066C188.635 207.228 194.765 214.089 194.765 222.546Z" fill="#4F69B2"/>
<path d="M252.363 287.92C249.192 287.92 246.108 286.27 244.405 283.317L198.478 203.666C195.936 199.258 197.435 193.616 201.825 191.064C206.214 188.511 211.834 190.017 214.376 194.424L260.302 274.076C262.844 278.483 261.345 284.125 256.956 286.678C255.507 287.521 253.925 287.92 252.363 287.92Z" fill="#F8FDFF"/>
<path d="M220.593 199.047C220.51 217.651 192.34 217.649 192.258 199.047C192.342 180.442 220.513 180.444 220.593 199.047Z" fill="#1D3F70"/>
<path d="M165.418 84.4643H162.04V105.069H165.418V84.4643Z" fill="#F8FDFF"/>
<path d="M154.988 107.046C155.107 105.032 154.194 100.581 157.43 100.642H170.028C171.371 100.642 172.47 101.746 172.47 103.094C172.351 105.108 173.263 109.559 170.028 109.498H157.43C156.087 109.498 154.988 108.394 154.988 107.046Z" fill="#4F69B2"/>
<path d="M121.125 157.794C118.474 157.696 112.956 158.708 113.032 154.51V136.661C112.957 132.483 118.478 133.453 121.127 133.379C122.924 133.379 124.395 134.857 124.395 136.661V154.51C124.393 156.317 122.922 157.794 121.125 157.794Z" fill="#4F69B2"/>
<path d="M211.159 157.794C208.508 157.696 202.99 158.708 203.066 154.51V136.661C202.992 132.483 208.512 133.453 211.161 133.379C212.958 133.379 214.43 134.857 214.43 136.661V154.51C214.428 156.317 212.956 157.794 211.159 157.794Z" fill="#4F69B2"/>
<path d="M150.399 114.835C150.581 111.764 149.189 104.977 154.124 105.069H173.335C178.251 104.975 176.904 111.768 177.06 114.835C177.06 116.892 175.384 118.575 173.335 118.575H154.124C152.076 118.575 150.399 116.892 150.399 114.835Z" fill="#F8FDFF"/>
<path d="M160.728 165.967C163.786 166.149 170.546 164.752 170.455 169.707V188.997C170.548 193.933 163.782 192.58 160.728 192.737C158.679 192.737 157.003 191.054 157.003 188.997V169.707C157.003 167.65 158.679 165.967 160.728 165.967Z" fill="#4F69B2"/>
<path d="M189.537 179.352H137.923C127.356 179.352 118.711 170.672 118.711 160.063C119.554 143.597 112.595 112.361 137.923 111.823H189.537C200.104 111.823 208.748 120.503 208.748 131.113C207.904 147.578 214.863 178.812 189.537 179.352Z" fill="#F8FDFF"/>
<path d="M184.576 168.097H142.881C135.837 168.097 130.075 162.309 130.075 155.238C130.639 144.261 125.996 123.439 142.883 123.079H184.578C191.623 123.079 197.385 128.866 197.385 135.937C196.821 146.914 201.462 167.736 184.576 168.097Z" fill="#1D3F70"/>
<path d="M170.109 84.4643C170.072 92.8428 157.385 92.8428 157.348 84.4643C157.385 76.0858 170.072 76.0878 170.109 84.4643Z" fill="#4F69B2"/>
<path d="M155.165 145.588C155.134 152.434 144.768 152.434 144.739 145.588C144.768 138.742 155.134 138.742 155.165 145.588Z" fill="#FFDE00"/>
<path d="M182.721 145.588C182.689 152.434 172.324 152.434 172.294 145.588C172.324 138.742 182.691 138.742 182.721 145.588Z" fill="#FFDE00"/>
<path d="M194.765 219.986V260.595H132.699V219.986C132.699 212.942 138.835 207.228 146.4 207.228H181.066C188.635 207.228 194.765 212.942 194.765 219.986Z" fill="#1D3F70"/>
<path d="M214.428 203.46V236.088C214.428 244.288 207.807 250.934 199.642 250.934H127.824C119.657 250.934 113.037 244.286 113.037 236.088V203.46C113.037 195.26 119.659 188.613 127.824 188.613H199.642C207.809 188.611 214.428 195.26 214.428 203.46Z" fill="#F8FDFF"/>
<path d="M129.892 194.896C129.808 213.5 101.639 213.498 101.557 194.896C101.64 176.291 129.812 176.293 129.892 194.896Z" fill="#1D3F70"/>
<path d="M69.7889 283.771C62.9512 283.932 58.2088 275.847 61.8479 269.926L107.775 190.275C113.977 179.91 129.555 188.899 123.672 199.518L77.7455 279.17C76.0438 282.121 72.9583 283.771 69.7889 283.771Z" fill="#F8FDFF"/>
<path d="M83.9652 274.547C83.8814 293.15 55.7117 293.15 55.6299 274.547C55.7137 255.943 83.8833 255.945 83.9652 274.547Z" fill="#1D3F70"/>
<path d="M153.717 265.184L139.503 265.208L142.488 261.924C146.567 257.563 139.655 251.228 135.702 255.706L127.048 265.227L70.1592 265.321C65.0854 265.321 60.9746 269.451 60.9746 274.545C60.9746 279.64 65.0874 283.769 70.1592 283.769L153.748 283.75C165.901 283.523 165.868 265.37 153.717 265.184Z" fill="#F8FDFF"/>
<path d="M320.095 278.573H216.794L237.362 202.544H340.039L320.095 278.573Z" fill="#163260"/>
<path d="M320.095 278.197H216.794V283.36H320.095V278.197Z" fill="#234270"/>
<path d="M238.914 202.544H235.218L215.073 278.197H166.049V283.36H218.514V278.741L238.914 202.544Z" fill="#0B274F"/>
<path d="M418.817 290.296C418.817 294.188 417.305 297.342 415.44 297.342H3.37772C2.44542 297.342 1.59985 296.552 0.989351 295.277C0.378852 294.002 0 292.243 0 290.296C0 286.405 1.51198 283.25 3.37772 283.25H415.44C416.372 283.25 417.217 284.04 417.828 285.315C418.438 286.59 418.817 288.349 418.817 290.296Z" fill="#4D58AA"/>
<path d="M394.322 246.353H384.968C358.584 149.376 421.54 169.202 394.322 246.353Z" fill="#8A9EDD"/>
<path d="M394.322 246.353C394.322 246.353 387.319 248.014 387.603 246.353C394.85 204.041 388.001 180.863 388.001 180.863C413.481 179.147 394.322 246.353 394.322 246.353Z" fill="#3A72AA"/>
<path d="M420.315 204.039C418.894 219.616 409.218 233.553 401.187 246.349H390.504C391.453 231.596 393.831 215.596 402.002 202.889C405.809 193.762 420.338 191.539 420.315 204.039Z" fill="#7689D6"/>
<path d="M420.315 204.039C420.315 204.615 420.145 205.83 420.145 205.83C412.545 204.613 408.097 200.943 405.704 198.066C406.129 197.559 406.555 197.215 407.033 196.884C409.222 199.509 413.362 202.904 420.315 204.039Z" fill="#8A9EDD"/>
<path d="M418.663 213.027C418.488 213.586 418.297 214.162 418.09 214.737C407.228 213.412 402.462 207.171 400.945 204.593C401.275 204.018 401.635 203.45 402.002 202.891C403.015 204.895 407.875 211.85 418.663 213.027Z" fill="#8A9EDD"/>
<path d="M415.747 220.648C415.498 221.207 415.241 221.775 414.983 222.337C404.653 221.865 399.101 216.896 396.636 213.629C396.885 212.966 397.143 212.302 397.421 211.653C399.437 214.755 405.538 220.282 415.747 220.648Z" fill="#8A9EDD"/>
<path d="M411.064 230.13C410.756 230.69 410.454 231.236 410.154 231.782C401.571 231.148 396.318 227.507 393.447 224.345C393.539 223.601 393.89 223.053 394.052 222.411C397.194 225.621 402.039 229.547 411.064 230.13Z" fill="#8A9EDD"/>
<path d="M405.601 239.411C405.248 239.97 404.903 240.524 404.558 241.07C398.155 240.023 394.028 237.207 391.584 234.804C391.687 234.052 391.791 233.301 391.915 232.541C394.147 234.899 398.964 238.43 405.601 239.411Z" fill="#8A9EDD"/>
<path d="M375.468 246.353H364.905C331.67 201.912 372.803 193.34 375.468 246.353Z" fill="#7689D6"/>
<path d="M375.468 246.353H369.047C357.489 230.175 354.976 216.892 354.962 210.476C370.043 202.401 375.503 246.317 375.468 246.353Z" fill="#8A9EDD"/>
<path d="M386.687 246.349H373.714C373.946 246.903 369.577 238.663 367.921 234.663H367.913C364.309 226.155 359.631 214.69 361.48 205.505C362.512 198.248 372.833 195.385 377.729 200.344C387.389 208.938 387.085 237.422 386.687 246.349Z" fill="#3A72AA"/>
<path d="M386.621 230.852C386.564 229.944 386.516 228.981 386.43 228.051L379.286 237.998L376.431 226.586L384.492 214.443C384.307 213.604 384.099 212.799 383.869 211.989L375.844 224.249L372.444 210.654L378.951 201.609C378.569 201.151 378.158 200.724 377.733 200.348L371.881 208.392L369.378 198.027C368.755 198.139 368.131 198.299 367.566 198.491L370.193 208.989L361.463 205.627C361.332 206.155 361.237 206.713 361.168 207.292L370.727 211.134L374.171 224.899L362.585 219.945C362.777 220.691 362.995 221.436 363.217 222.178L374.715 227.073L377.594 238.581L367.917 234.667C368.248 235.5 368.632 236.246 368.967 236.99L378.138 240.728C378.598 241.511 379.113 247.398 380.458 247.253C382.602 247.345 379.729 241.133 379.855 240.264L386.625 230.872C386.621 230.86 386.621 230.86 386.621 230.852Z" fill="#7689D6"/>
<path d="M401.082 246.351H364.796V283.127H401.082V246.351Z" fill="#EB5648"/>
<path d="M401.084 246.351V283.127H364.798C364.796 283.127 401.084 282.558 401.084 246.351Z" fill="#CE3932"/>
<path d="M460 106.584L455.734 87.6544L444.91 90.1145C443.296 86.9322 441.278 84.0259 438.937 81.4483L444.921 71.9249L428.572 61.5697L422.814 70.735C418.999 69.3865 414.953 68.6193 410.805 68.5117L408.284 57.3325L389.432 61.6167L391.952 72.7959C388.518 74.5514 385.407 76.7825 382.686 79.3875L374.098 73.9486L363.785 90.3651L372.373 95.8039C371.203 99.3914 370.535 103.171 370.437 107.04L359.613 109.5L363.88 128.429L374.704 125.969C376.585 129.682 379.019 133.017 381.873 135.894L376.115 145.059L392.465 155.414L398.449 145.891C401.774 146.903 405.255 147.48 408.811 147.572L411.331 158.751L430.184 154.467L427.663 143.288C431.098 141.532 434.209 139.301 436.93 136.696L446.939 143.035L457.252 126.619L447.243 120.28C448.412 116.692 449.081 112.911 449.178 109.044L460 106.584ZM414.82 125.044C392.609 131.504 382.719 97.7395 404.79 91.0383C427.001 84.5778 436.891 118.342 414.82 125.044Z" fill="#8A9EDD"/>
<path d="M346.156 100.278L345.1 95.5906L340.973 96.5281C339.95 93.2832 338.379 90.3377 336.389 87.7719L339.492 84.8929L336.243 81.3642L333.137 84.2471C330.691 82.012 327.867 80.2232 324.805 78.9687L326.058 74.9135L321.487 73.4887L320.234 77.54C317.07 76.8413 313.747 76.6886 310.389 77.1564L309.455 73.0131L304.787 74.0739L305.72 78.2171C302.488 79.2446 299.555 80.8221 297 82.8203L294.132 79.7046L290.618 82.9671L293.489 86.0848C291.263 88.541 289.482 91.3769 288.232 94.4516L284.193 93.1932L282.774 97.7826L286.809 99.0411C286.113 102.218 285.961 105.554 286.427 108.927L282.301 109.864L283.357 114.551L287.484 113.614C288.509 116.859 290.078 119.804 292.068 122.37L288.965 125.249L292.214 128.778L295.319 125.895C297.766 128.13 300.59 129.919 303.652 131.173L302.399 135.229L306.97 136.653L308.223 132.602C311.387 133.301 314.71 133.453 318.068 132.986L319.002 137.129L323.67 136.068L322.737 131.925C325.968 130.897 328.902 129.32 331.457 127.322L334.325 130.437L337.839 127.175L334.968 124.057C337.194 121.601 338.975 118.765 340.225 115.69L344.263 116.949L345.682 112.359L341.648 111.101C342.343 107.925 342.496 104.588 342.03 101.215L346.156 100.278ZM318.257 122.938C294.776 127.852 286.903 92.9172 310.201 87.2024C333.683 82.288 341.556 117.223 318.257 122.938Z" fill="#667ECC"/>
<path d="M377.807 35.714L376.208 28.6214L370.798 29.8504C370.349 28.7858 369.821 27.772 369.217 26.8208L373.285 23.0435L368.369 17.7044L364.295 21.4856C363.387 20.7987 362.424 20.1881 361.414 19.6616L363.059 14.3401L356.142 12.1834L354.498 17.497C353.382 17.358 352.243 17.3169 351.093 17.3698L349.869 11.9368L342.805 13.5416L344.029 18.9746C342.969 19.4248 341.959 19.9552 341.012 20.5619L337.25 16.4773L331.933 21.4132L335.699 25.5036C335.014 26.4157 334.406 27.3825 333.882 28.3963L328.582 26.7445L326.434 33.6903L331.726 35.3402C331.588 36.4616 331.547 37.6046 331.599 38.7593L326.188 39.9884L327.787 47.0811L333.198 45.852C333.646 46.9167 334.174 47.9305 334.779 48.8816L330.711 52.6589L335.626 57.998L339.7 54.2168C340.609 54.9037 341.571 55.5144 342.581 56.0408L340.936 61.3623L347.854 63.519L349.497 58.2054C350.614 58.3444 351.752 58.3855 352.902 58.3326L354.126 63.7656L361.19 62.1608L359.966 56.7278C361.026 56.2776 362.036 55.7473 362.983 55.1405L366.745 59.2251L372.063 54.2892L368.297 50.1988C368.981 49.2868 369.589 48.3199 370.113 47.3061L375.413 48.958L377.561 42.0121L372.269 40.3622C372.408 39.2408 372.449 38.0978 372.396 36.9431L377.807 35.714ZM354.253 47.8522C341.111 50.6039 336.706 31.0502 349.744 27.8522C362.886 25.1024 367.291 44.6542 354.253 47.8522Z" fill="#EB5648"/>
<path d="M291.255 17.4401V52.4337C291.255 58.2464 286.562 62.9573 280.774 62.9573H197.178C191.391 62.9573 186.697 58.2464 186.697 52.4337V17.4401C186.697 11.6294 191.391 6.91663 197.178 6.91663H280.774C286.56 6.91663 291.255 11.6294 291.255 17.4401Z" fill="#7689D6"/>
<path d="M186.697 52.4357C186.697 58.2484 191.391 62.9592 197.178 62.9592H201.456V77.9802L221.654 62.9592H280.773C286.56 62.9592 291.253 58.2484 291.253 52.4357V17.4401C251.79 57.0682 186.697 52.4357 186.697 52.4357Z" fill="#677CC1"/>
<path d="M252.967 24.024H197.289C195.687 24.024 194.386 22.7186 194.386 21.1098C194.386 19.501 195.687 18.1956 197.289 18.1956H252.967C256.745 18.2093 256.776 24.0064 252.967 24.024Z" fill="white"/>
<path d="M219.749 37.8531H197.289C193.5 37.8374 193.488 32.0404 197.289 32.0247H219.749C223.539 32.0384 223.55 37.8355 219.749 37.8531Z" fill="white"/>
<path d="M280.665 37.8531H233.25C231.647 37.8531 230.347 36.5477 230.347 34.9389C230.347 33.3301 231.647 32.0247 233.25 32.0247H280.665C284.445 32.0384 284.472 37.8355 280.665 37.8531Z" fill="white"/>
<path d="M243.204 51.6803H197.287C193.506 51.6666 193.48 45.8676 197.287 45.8519H243.204C246.987 45.8656 247.013 51.6646 243.204 51.6803Z" fill="white"/>
<path d="M275.884 6.91663C205.409 6.91663 189.036 18.7162 186.697 20.7966C185.828 13.8136 189.58 6.96947 197.178 6.91663H275.884Z" fill="#8A9EDD"/>
<path d="M99.1936 38.3118V58.9027C99.1936 62.323 101.955 65.095 105.361 65.095H154.551C157.956 65.095 160.718 62.323 160.718 58.9027V38.3118C160.718 34.8927 157.956 32.1196 154.551 32.1196H105.361C101.955 32.1196 99.1936 34.8927 99.1936 38.3118Z" fill="#7689D6"/>
<path d="M160.718 58.9027C160.718 62.323 157.956 65.095 154.551 65.095H152.033V73.9337L140.149 65.095H105.362C101.957 65.095 99.1948 62.323 99.1948 58.9027V38.3118C122.416 61.6298 160.718 58.9027 160.718 58.9027Z" fill="#677CC1"/>
<path d="M121.723 42.1858H154.485C155.428 42.1858 156.193 41.4177 156.193 40.471C156.193 39.5244 155.428 38.7563 154.485 38.7563H121.723C119.5 38.7632 119.482 42.1754 121.723 42.1858Z" fill="white"/>
<path d="M141.269 50.322H154.485C156.715 50.3128 156.722 46.9017 154.485 46.8925H141.269C139.039 46.9017 139.033 50.3128 141.269 50.322Z" fill="white"/>
<path d="M105.425 50.322H133.325C134.268 50.322 135.033 49.5539 135.033 48.6073C135.033 47.6606 134.268 46.8925 133.325 46.8925H105.425C103.2 46.9006 103.185 50.3128 105.425 50.322Z" fill="white"/>
<path d="M127.467 58.4594H154.485C156.71 58.4513 156.725 55.0391 154.485 55.0298H127.467C125.242 55.0379 125.227 58.4501 127.467 58.4594Z" fill="white"/>
<path d="M108.237 32.1195C149.706 32.1195 159.34 39.0626 160.716 40.2868C161.228 36.1778 159.02 32.1506 154.549 32.1195C154.55 32.1195 108.237 32.1195 108.237 32.1195Z" fill="#8A9EDD"/>
</svg>
