<svg width="44" height="44" viewBox="0 0 44 44" fill="none" xmlns="http://www.w3.org/2000/svg">
<path d="M40.3337 11.9167H29.3337M11.0003 11.9167H3.66699M40.3337 32.0833H33.0003M14.667 32.0833H3.66699M18.3337 18.3333C19.1763 18.3333 20.0107 18.1674 20.7892 17.8449C21.5677 17.5224 22.2751 17.0498 22.8709 16.4539C23.4668 15.8581 23.9394 15.1507 24.2619 14.3722C24.5844 13.5937 24.7503 12.7593 24.7503 11.9167C24.7503 11.074 24.5844 10.2396 24.2619 9.46111C23.9394 8.68261 23.4668 7.97524 22.8709 7.3794C22.2751 6.78356 21.5677 6.31091 20.7892 5.98844C20.0107 5.66597 19.1763 5.5 18.3337 5.5C16.6319 5.5 14.9997 6.17604 13.7964 7.3794C12.593 8.58276 11.917 10.2149 11.917 11.9167C11.917 13.6185 12.593 15.2506 13.7964 16.4539C14.9997 17.6573 16.6319 18.3333 18.3337 18.3333ZM25.667 38.5C27.3688 38.5 29.0009 37.824 30.2043 36.6206C31.4076 35.4172 32.0837 33.7851 32.0837 32.0833C32.0837 30.3815 31.4076 28.7494 30.2043 27.5461C29.0009 26.3427 27.3688 25.6667 25.667 25.6667C23.9652 25.6667 22.3331 26.3427 21.1297 27.5461C19.9264 28.7494 19.2503 30.3815 19.2503 32.0833C19.2503 33.7851 19.9264 35.4172 21.1297 36.6206C22.3331 37.824 23.9652 38.5 25.667 38.5Z" stroke="white" stroke-width="3.5" stroke-miterlimit="10" stroke-linecap="round" stroke-linejoin="round"/>
</svg>
