<svg width="38" height="43" viewBox="0 0 38 43" fill="none" xmlns="http://www.w3.org/2000/svg">
<path d="M33.8814 21.4882V9.30523C33.8814 8.99511 33.7582 8.6977 33.539 8.4784L27.4029 2.34249C27.1837 2.12319 26.8863 2 26.5762 2H3.86949C3.22371 2 2.7002 2.52351 2.7002 3.16929V39.8072C2.7002 40.453 3.22371 40.9765 3.86949 40.9765H16.342" stroke="white" stroke-width="3.48" stroke-linecap="round" stroke-linejoin="round"/>
<path d="M10.4961 17.5906H26.0867M10.4961 9.79529H18.2914M10.4961 25.3859H16.3426" stroke="white" stroke-width="3.48" stroke-linecap="round" stroke-linejoin="round"/>
<path d="M26.6817 31.4531L28.4533 27.6963C28.6808 27.214 29.3379 27.214 29.5653 27.6963L31.337 31.4531L35.2992 32.0592C35.8076 32.1369 36.0101 32.791 35.6422 33.1661L32.7756 36.0882L33.4521 40.2164C33.539 40.7465 33.0074 41.1508 32.5525 40.9004L29.0093 38.9502L25.4662 40.9004C25.0113 41.1508 24.4797 40.7465 24.5666 40.2164L25.243 36.0882L22.3765 33.1661C22.0086 32.791 22.2111 32.1369 22.7195 32.0592L26.6817 31.4531Z" stroke="white" stroke-width="3.48" stroke-linecap="round" stroke-linejoin="round"/>
<path d="M26.0859 2V8.626C26.0859 9.27178 26.6094 9.7953 27.2552 9.7953H33.8812" stroke="white" stroke-width="3.48" stroke-linecap="round" stroke-linejoin="round"/>
</svg>
